<svg xmlns="http://www.w3.org/2000/svg" width="120" height="48"><path d="M16.126 7.941a.978.978 0 00.018-.084l.049-.354-2.219-.013c-2.005-.011-2.619 0-2.674.051-.026.024-.719 2.655-1.953 7.419-.589 2.273-1.084 4.088-1.101 4.034s-.721-2.648-1.565-5.765c-.844-3.116-1.552-5.683-1.573-5.704-.029-.029-2.718-.042-4.895-.024-.316.003-.491-.615 2.813 9.897a153.85 153.85 0 001.522 4.579c.437 1.225.749 2.171.963 2.961.377 1.503.39 2.445.308 3.545-.095 1.27-.109 10.239-.016 10.389.071.115 4.276.168 4.674.059.064-.017.106-.079.135-.419.099-.292.107-1.452.107-6.269v-6.154l.269-.849c.176-.555.619-2.015.984-3.245s.807-2.701.981-3.271c1.586-5.171 3.1-10.258 3.14-10.547l.032-.237zm23.536 7.465l-.001.321-.05.001-.028 8.859-.027 8.589-.687.7c-.77.784-1.387 1.083-1.945.943-.608-.153-.592.084-.643-10.067l-.047-9.344h-4.421v.321h-.051v10.139c0 10.863 0 10.856.551 11.947.439.869 1.079 1.292 2.175 1.438 1.443.192 3-.462 4.442-1.866l.627-.61v1.052c0 .909.026 1.059.191 1.105.27.075 3.617.08 3.979.006l.3-.062v-.311l.051-.01V15.349l-4.415.059zm-11.214 4.578c-.419-1.797-1.204-3.005-2.495-3.841-2.029-1.312-4.346-1.451-6.496-.389-1.567.774-2.576 2.058-3.097 3.941a4.3 4.3 0 00-.142.694c-.133.665-.148 1.657-.182 6.279-.053 7.122.029 7.969.921 9.586.875 1.587 2.691 2.75 4.667 2.99.595.072 1.801-.04 2.495-.233 1.576-.437 3.087-1.683 3.756-3.097.289-.611.463-1.036.568-1.812.196-1.06.21-2.774.21-7.143 0-5.572-.018-6.181-.203-6.977zM23.407 34.5c-.371.283-1.019.405-1.546.293-.406-.087-.953-.723-1.122-1.303-.21-.724-.226-10.781-.045-12.753.299-.987 1.134-1.502 2.045-1.257.71.191 1.074.636 1.281 1.568.154.692.172 1.553.139 6.622-.022 3.361-.034 5.004-.143 5.885-.112.556-.296.705-.61.945zm84.424-9.462h2.136l-.034-1.935c-.033-1.775-.059-1.978-.296-2.46-.374-.76-.926-1.097-1.802-1.097-1.052 0-1.719.509-2.034 1.553-.134.445-.275 3.501-.174 3.764.056.147.362.174 2.204.174zm-14.278-4.402c-.285-.574-.815-.857-1.431-.835-.479.017-1.011.219-1.523.61l-.382.29v13.903l.382.29c.864.659 1.813.798 2.467.361.259-.173.427-.412.559-.79.171-.493.186-1.125.164-6.974-.023-6.096-.037-6.455-.235-6.854z"/><path d="M120.041 14.373c-.426-5.102-.764-6.758-1.816-8.885-1.394-2.817-3.407-4.303-6.275-4.629-2.218-.252-10.562-.608-18.283-.78-13.368-.297-35.346.275-38.153.992-1.297.332-2.27.896-3.282 1.903-1.774 1.765-2.831 4.297-3.256 7.8-.97 7.997-.991 17.659-.056 25.946.402 3.564 1.23 5.88 2.785 7.789.97 1.191 2.642 2.203 4.137 2.505 1.049.212 6.301.506 13.95.781 1.139.041 4.156.112 6.705.157 5.311.094 15.076.038 20.659-.118 3.756-.105 10.603-.383 11.883-.482.36-.028 1.194-.081 1.853-.118 2.216-.125 3.626-.589 4.95-1.629 1.713-1.346 3.04-3.834 3.601-6.752.53-2.761.885-7.677.957-13.259.06-4.664-.02-7.18-.357-11.222zM66.81 12.525l-2.484.031-.109 26.491-2.153.027c-1.665.023-2.171-.002-2.211-.109-.029-.076-.064-6.048-.078-13.273l-.027-13.137-4.851-.061V8.355l14.336.058.061 4.081-2.484.031zm15.231 15.184v11.392h-3.925v-1.199c0-.902-.034-1.199-.14-1.199-.077 0-.432.297-.79.661-.776.788-1.696 1.423-2.48 1.717-1.625.608-3.168.253-3.826-.879-.602-1.036-.613-1.268-.613-12.016v-9.869h3.921l.031 9.294c.029 9.132.033 9.3.252 9.672.29.493.732.626 1.434.433.413-.114.695-.314 1.366-.981l.845-.842V16.317h3.925v11.392zm15.307 9.763c-.346.77-1.116 1.524-1.748 1.71-1.648.487-2.971.09-4.497-1.346-.474-.446-.915-.807-.981-.807-.08 0-.123.349-.123 1.036v1.036h-3.925V8.358h3.925v5.015c0 2.758.037 5.015.082 5.015s.459-.366.92-.811c1.061-1.024 1.948-1.472 3.073-1.557 2.007-.152 3.203.881 3.751 3.24.171.736.187 1.576.187 8.394 0 8.305-.001 8.34-.664 9.818zm16.605-4.558c-.035.854-.138 1.835-.232 2.18-.546 2.023-1.999 3.456-4.098 4.044-2.827.791-5.939-.505-7.181-2.991-.697-1.395-.722-1.674-.722-8.493 0-5.56.02-6.242.198-7.001.504-2.146 1.753-3.535 3.867-4.306a5.877 5.877 0 011.891-.351c2.281-.047 4.546 1.18 5.495 3.179.64 1.348.72 1.925.784 5.723l.058 3.407-8.367.058-.031 2.289c-.044 3.23.174 4.223 1.046 4.81.733.494 1.86.457 2.473-.082.575-.505.737-1.047.794-2.63l.051-1.39h4.04l-.065 1.554z"/></svg>